<svg version="1" xmlns="http://www.w3.org/2000/svg" width="384" height="384" viewBox="0 0 288.000000 288.000000"><path d="M141.7 99.6c-.1.1-4.7.4-10.2.8-29.8 1.6-56.8 8.4-72.5 18-1.9 1.2-4.3 2-5.4 1.8-1.1-.2-1.6 0-1.2.7.4.6-.6 2.3-2.1 3.9l-2.8 2.9-5.2-1.6c-2.8-.9-5.5-2-5.9-2.4-.4-.4-1.5-.7-2.5-.7-1.2 0-1.6.6-1.2 2 .5 1.8 0 2-5.4 2-3.7 0-6.7-.6-7.9-1.5-2.6-2-4.1-1.9-4.7.5-.3 1.3-.1 1.8.6 1.3.6-.4.8 0 .4.9-.3.9 0 2.1.6 2.7.8.8.7 1.1-.3 1.1s-1.1.3-.4.8c1.4.9 3.9 5.7 2.6 4.8-.5-.3-1.3.1-1.6 1-.4 1-.2 1.3.7.8.6-.4.3.3-.8 1.6s-1.4 2-.8 1.6c.9-.5 1.1-.2.7.8-.3.9-.9 1.4-1.3 1.2-.4-.3-.8.5-.8 1.6-.1 1.1-1 2.7-2 3.5-1 .8-1.2 1.2-.5.8 1.4-.7 1.7 1.1.2 2-.6.4-.8 1.1-.5 1.6.4.5.1.9-.6.9s-.9.3-.6.7c.4.3.2 1.2-.4 2-1.2 1.4-1 1.4 2.9 1.6.9.1 2 .6 2.4 1.2.5.6.8.6.8-.2 0-1.7 3.5-.8 8.8 2.4 2.6 1.6 5.9 3.5 7.5 4.2 2.6 1.4 2.7 1.8 2.3 6.6-.4 5.1.3 7.6 2 7.7.5 0 2 .5 3.4 1 5.1 1.9 14 4.1 14.6 3.5 2.3-2.2-.1-13.7-2.5-12.2-1.1.6-12.1-2.5-14.8-4.3-1.8-1.1-2.2-2.3-2.1-5.8 0-3 .5-4.4 1.4-4.4.8 0 1.4.6 1.4 1.2 0 1 .3.9.9-.1.6-.9 1.1-1 1.5-.2.4.7 1.5.7 3 .1 1.3-.5 2.6-.6 2.9-.4.7.7 3.6 1.2 7.7 1.3 1.9.1 3 .5 2.5.9-.6.4-1.1 3.5-1.1 6.9 0 7.2-1.6 6.4 12.9 6.8 4.2.1 7.8-.1 7.8-.6.1-.5.2-1.5.3-2.2.2-1.5 3.4-1.2 7.8.7l3.3 1.4-3 .2c-1.6.2-4 .2-5.2.3-2 0-2.3.5-2.3 4.4 0 3.2-.3 4.2-1.2 3.8-.7-.4-.5 0 .4.8 1 .8 1.4 1.7 1 2.2-.9.9 8.7 0 16.5-1.6l6-1.2-.7-3.4c-.9-3.8-.9-3.8 7-2.3 2.9.6 7.6 1.2 10.4 1.5 2.8.3 7.4.7 10.1 1 5.4.6 36.5.6 43 .1 22.8-1.9 46.7-7.5 60.5-14.2l6.4-3.1 8.7 2.2c4.7 1.2 9.2 2.6 9.9 3 1.9 1.2-.7-3.1-2.8-4.7-3.9-2.8-3.2-3.6 1.7-2 2.8.8 4.8 1.9 4.6 2.2-.3.4.7.6 2 .4 1.4-.1 2.5.1 2.5.5s.6.8 1.3.8c1.3 0 18.1 5.8 19.7 6.8 2.4 1.5.6-1.1-3.7-5.4-2.6-2.5-6.5-5.4-8.8-6.5-4-1.8-4-1.8-1.4-2.7 2-.7 3.2-2.7 5.6-8.7 1.7-4.2 2.9-7.8 2.8-8-.6-.7-12-.5-11.7.2.2.5-.3 1.3-1.2 1.8-.9.5-1.3 1.4-1 2 .4.6 0 1.4-.7 1.9-1.1.7-1.1.9.3.9.9 0 2 .5 2.4 1.2.4.7.3.8-.4.4s-1.2-.3-1.2.2-.7.9-1.5.9-1.2-.4-.9-.8c.2-.4 0-1-.6-1.4-1.7-1-1.1-3.8 1.5-7.7 2.4-3.6 7.8-7.8 5.9-4.6-.6 1-.5 1.1.7.1s1.8-1 2.7-.1c1.4 1.4 4.2 2 4.2.9 0-.4 1.1-1.3 2.4-2 2.1-1.2 2.2-1.6 1.2-4.2-2.5-6.7-15.3-5.3-23.1 2.5-1.6 1.6-2.9 3.3-2.8 3.8.2.4-.2.8-.7.8-1.4 0-1.3-1.2.9-6.3l2-4.5h-3.2c-6.2.1-6.4-.1-7.6-4.5-1.3-4.6-1.2-4.5-11.5-10.2-6.4-3.5-7-3.6-8.2-2.1-1.1 1.6-1.5 1.6-6.1.1-5.2-1.8-7-2.3-9.2-2.4-1.2-.1-1.2-.4-.3-1.3 1.9-1.9 1.5-2.3-3.1-2.4-6-.2-18.7-1.3-22.2-1.9-1.6-.3-4.5-.8-6.3-1.1-4.8-.8-36.9-2.3-37.5-1.8zM33.6 130c0 1.1-.6 2-1.3 2-1.5 0-1.5-.2-.7-2.4.9-2.2 2-2 2 .4zm3.7 4.4c1.7 1.3 1.7 1.5.2 2.4-.9.5-1.6 1.2-1.6 1.5.1.4-.2.6-.6.4-1.1-.3-1.6-5.7-.6-5.7.4 0 1.6.7 2.6 1.4zm-3.9 8.7c.5.5.1 2-.9 3.5-.9 1.4-1.3 2.4-.8 2.1.5-.4 1 0 1 .7 0 1.2-7.2 1.5-8.4.2-.3-.3.3-2.5 1.3-4.9 1.7-4.2 2-4.4 4.4-3.4 1.4.6 2.9 1.4 3.4 1.8zm213.5 15.3c1 1.2.8 1.3-.8.9-1.2-.3-1.8-.9-1.5-1.4.7-1.2 1-1.1 2.3.5z"/><path d="M9 102.5c0 .3.7 2.1 1.5 4.1 1.4 3.5 1.5 3.7 1.5 5.3 0 .5.9 1.3 2 1.6 1.1.4 1.7 1.1 1.4 1.7-.4.7-.2.8.4.4.6-.4 4.3 1 8.2 3 3.9 2 7.3 3.4 7.5 3.2.3-.2.1-2.4-.3-4.8-.7-4-1.1-4.5-6.7-7.3-3.3-1.6-8.1-4.1-10.7-5.4-2.7-1.3-4.8-2.2-4.8-1.8z"/></svg>